<svg viewBox="0 0 280 140" fill="none" xmlns="http://www.w3.org/2000/svg">
  <!-- LEFT: chaos (messy input) -->
  <path d="M30 50 L55 30 L62 55 L40 70 Z" stroke="rgba(255,255,255,0.12)" stroke-width="1" fill="none"/>
  <path d="M45 80 L65 65 L72 85" stroke="rgba(255,255,255,0.08)" stroke-width="1" fill="none"/>
  <line x1="25" y1="45" x2="48" y2="38" stroke="rgba(255,255,255,0.06)" stroke-width="1"/>
  <line x1="50" y1="60" x2="55" y2="42" stroke="rgba(255,255,255,0.06)" stroke-width="1"/>
  <circle cx="55" cy="85" r="1.5" fill="rgba(255,255,255,0.1)"/>
  <circle cx="32" cy="72" r="1.5" fill="rgba(255,255,255,0.08)"/>
  <circle cx="62" cy="45" r="1" fill="rgba(255,255,255,0.06)"/>
  <!-- Arrow -->
  <line x1="80" y1="65" x2="120" y2="65" stroke="rgba(255,255,255,0.15)" stroke-width="1.2"/>
  <polygon points="118,61 128,65 118,69" fill="rgba(255,255,255,0.2)"/>
  <!-- RIGHT: clarity (structured output) -->
  <rect x="140" y="36" width="12" height="12" rx="2.5" stroke="#fdbb3e" stroke-width="1.5" fill="none" stroke-opacity="0.6"/>
  <rect x="156" y="36" width="12" height="12" rx="2.5" stroke="#fdbb3e" stroke-width="1.5" fill="none" stroke-opacity="0.3"/>
  <rect x="172" y="36" width="12" height="12" rx="2.5" stroke="#fdbb3e" stroke-width="1.5" fill="none" stroke-opacity="0.3"/>
  <rect x="140" y="52" width="12" height="12" rx="2.5" stroke="rgba(255,255,255,0.12)" stroke-width="1" fill="none"/>
  <rect x="156" y="52" width="12" height="12" rx="2.5" fill="#fdbb3e" fill-opacity="0.15" stroke="#fdbb3e" stroke-width="1" stroke-opacity="0.4"/>
  <rect x="172" y="52" width="12" height="12" rx="2.5" stroke="rgba(255,255,255,0.12)" stroke-width="1" fill="none"/>
  <rect x="140" y="68" width="12" height="12" rx="2.5" fill="rgba(255,255,255,0.04)" stroke="rgba(255,255,255,0.1)" stroke-width="1"/>
  <rect x="156" y="68" width="12" height="12" rx="2.5" fill="rgba(255,255,255,0.04)" stroke="rgba(255,255,255,0.1)" stroke-width="1"/>
  <rect x="172" y="68" width="12" height="12" rx="2.5" fill="rgba(255,255,255,0.04)" stroke="rgba(255,255,255,0.1)" stroke-width="1"/>
  <rect x="188" y="36" width="12" height="44" rx="2.5" fill="rgba(255,255,255,0.02)" stroke="rgba(255,255,255,0.08)" stroke-width="1"/>
  <path d="M158 57 L161 60 L165 55" stroke="#fff" stroke-width="1.2" stroke-linecap="round" stroke-linejoin="round" fill="none"/>
</svg>
