<svg viewBox="0 0 280 140" fill="none" xmlns="http://www.w3.org/2000/svg">
  <path d="M18 30 Q25 50 18 70 Q35 65 32 85 Q28 100 22 110" stroke="rgba(255,255,255,0.1)" stroke-width="1" fill="none"/>
  <path d="M40 25 Q48 40 42 60 Q55 55 50 75 Q45 90 40 112" stroke="rgba(255,255,255,0.08)" stroke-width="1" fill="none"/>
  <path d="M60 30 Q55 55 62 78 Q50 85 58 108" stroke="rgba(255,255,255,0.06)" stroke-width="1" fill="none"/>
  <circle cx="52" cy="55" r="2.5" stroke="rgba(255,255,255,0.15)" stroke-width="0.8" fill="none"/>
  <circle cx="28" cy="85" r="2" stroke="rgba(255,255,255,0.1)" stroke-width="0.8" fill="none"/>
  <circle cx="48" cy="38" r="1.5" fill="rgba(255,255,255,0.08)"/>
  <line x1="100" y1="16" x2="100" y2="124" stroke="rgba(255,255,255,0.06)" stroke-width="1"/>
  <rect x="122" y="26" width="44" height="16" rx="8" stroke="rgba(255,255,255,0.15)" stroke-width="1" fill="none"/>
  <text x="144" y="37" fill="rgba(255,255,255,0.2)" font-size="7" font-family="Nunito,sans-serif" font-weight="600" text-anchor="middle">INPUT</text>
  <line x1="144" y1="42" x2="144" y2="50" stroke="rgba(255,255,255,0.12)" stroke-width="1"/>
  <rect x="122" y="50" width="44" height="16" rx="8" stroke="#fdbb3e" stroke-width="1.5" fill="none" stroke-opacity="0.5"/>
  <text x="144" y="61" fill="#fdbb3e" font-size="7" font-family="Nunito,sans-serif" font-weight="600" text-anchor="middle" fill-opacity="0.7">AI</text>
  <line x1="144" y1="66" x2="144" y2="74" stroke="#fdbb3e" stroke-width="1" stroke-opacity="0.25"/>
  <rect x="122" y="74" width="44" height="16" rx="8" stroke="rgba(255,255,255,0.18)" stroke-width="1" fill="none"/>
  <text x="144" y="85" fill="rgba(255,255,255,0.25)" font-size="7" font-family="Nunito,sans-serif" font-weight="600" text-anchor="middle">RESULT</text>
  <rect x="196" y="26" width="44" height="16" rx="8" stroke="rgba(255,255,255,0.1)" stroke-width="1" fill="none"/>
  <line x1="218" y1="42" x2="218" y2="74" stroke="rgba(255,255,255,0.06)" stroke-width="1"/>
  <rect x="196" y="74" width="44" height="16" rx="8" stroke="rgba(255,255,255,0.1)" stroke-width="1" fill="none"/>
  <text x="218" y="85" fill="rgba(255,255,255,0.15)" font-size="7" font-family="Nunito,sans-serif" font-weight="600" text-anchor="middle">LOG</text>
  <line x1="166" y1="58" x2="196" y2="58" stroke="#fdbb3e" stroke-width="0.8" stroke-opacity="0.2" stroke-dasharray="2 3"/>
</svg>
