<svg viewBox="0 0 280 140" fill="none" xmlns="http://www.w3.org/2000/svg">
  <rect x="58" y="110" width="164" height="6" rx="3" fill="#fdbb3e" fill-opacity="0.40"/>
  <rect x="58" y="18" width="164" height="88" rx="10" stroke="rgba(255,255,255,0.45)" stroke-width="1.2" fill="none"/>
  <rect x="58" y="18" width="164" height="18" rx="10" fill="rgba(255,255,255,0.12)"/>
  <rect x="58" y="28" width="164" height="8" fill="rgba(255,255,255,0.12)"/>
  <circle cx="74" cy="27" r="3.5" fill="rgba(255,255,255,0.40)"/>
  <circle cx="86" cy="27" r="3.5" fill="rgba(255,255,255,0.40)"/>
  <circle cx="98" cy="27" r="3.5" fill="rgba(255,255,255,0.40)"/>
  <rect x="76" y="48" width="128" height="2" fill="rgba(255,255,255,0.20)"/>
  <rect x="76" y="60" width="80" height="6" rx="3" fill="rgba(255,255,255,0.35)"/>
  <rect x="76" y="72" width="128" height="3" rx="1.5" fill="rgba(255,255,255,0.20)"/>
  <rect x="76" y="79" width="100" height="3" rx="1.5" fill="rgba(255,255,255,0.15)"/>
  <rect x="76" y="90" width="40" height="8" rx="4" fill="#fdbb3e" fill-opacity="0.2"/>
  <circle cx="204" cy="94" r="12" stroke="#fdbb3e" stroke-width="1.5" fill="none"/>
  <path d="M198 94 L202 98 L210 90" stroke="#fdbb3e" stroke-width="1.8" stroke-linecap="round" stroke-linejoin="round" fill="none"/>
</svg>
